HIERARCHY
ROOT Pelvis
{
	OFFSET 0.000000 0.941512 0.000000
	CHANNELS 6 Xposition Yposition Zposition Zrotation Yrotation Xrotation 
	JOINT Pelvis_L_Hip
	{
		OFFSET 0.000000 0.000000 0.000000
		CHANNELS 3 Zrotation Yrotation Xrotation
		JOINT L_Hip
		{
			OFFSET 0.062321 -0.080322 -0.016990
			CHANNELS 3 Zrotation Yrotation Xrotation
			JOINT L_Knee
			{
				OFFSET 0.093051 -0.381305 -0.029784
				CHANNELS 3 Zrotation Yrotation Xrotation
				JOINT L_Ankle
				{
					OFFSET -0.010371 -0.431000 -0.033614
					CHANNELS 3 Zrotation Yrotation Xrotation
					End Site #name: L_Foot
					{
						OFFSET 0.069299 -0.038670 0.119418
					}
				}
			}
		}
	}
	JOINT Pelvis_R_Hip
	{
		OFFSET 0.000000 0.000000 0.000000
		CHANNELS 3 Zrotation Yrotation Xrotation
		JOINT R_Hip
		{
			OFFSET -0.055334 -0.094904 -0.002373
			CHANNELS 3 Zrotation Yrotation Xrotation
			JOINT R_Knee
			{
				OFFSET -0.064207 -0.384370 -0.019592
				CHANNELS 3 Zrotation Yrotation Xrotation
				JOINT R_Ankle
				{
					OFFSET 0.025418 -0.419734 -0.065953
					CHANNELS 3 Zrotation Yrotation Xrotation
					End Site #name: R_Foot
					{
						OFFSET -0.057233 -0.039888 0.132134
					}
				}
			}
		}
	}
	JOINT Pelvis_Spine1
	{
		OFFSET 0.000000 0.000000 0.000000
		CHANNELS 3 Zrotation Yrotation Xrotation
		JOINT Spine1
		{
			OFFSET -0.005562 0.124093 -0.043360
			CHANNELS 3 Zrotation Yrotation Xrotation
			JOINT Spine2
			{
				OFFSET 0.012244 0.139499 0.029894
				CHANNELS 3 Zrotation Yrotation Xrotation
				JOINT Spine3
				{
					OFFSET -0.002556 0.056561 0.009225
					CHANNELS 3 Zrotation Yrotation Xrotation
					JOINT Spine3_Neck
					{
						OFFSET 0.000000 0.000000 0.000000
						CHANNELS 3 Zrotation Yrotation Xrotation
						JOINT Neck
						{
							OFFSET -0.005205 0.217920 -0.024551
							CHANNELS 3 Zrotation Yrotation Xrotation
							End Site #name: Head
							{
								OFFSET 0.002365 0.091850 0.046637
							}
						}
					}
					JOINT Spine3_L_Collar
					{
						OFFSET 0.000000 0.000000 0.000000
						CHANNELS 3 Zrotation Yrotation Xrotation
						JOINT L_Collar
						{
							OFFSET 0.072225 0.116603 -0.009480
							CHANNELS 3 Zrotation Yrotation Xrotation
							JOINT L_Shoulder
							{
								OFFSET 0.115937 -0.058643 -0.021018
								CHANNELS 3 Zrotation Yrotation Xrotation
								JOINT L_Elbow
								{
									OFFSET 0.021994 -0.254722 -0.024492
									CHANNELS 3 Zrotation Yrotation Xrotation
									End Site #name: L_Wrist
									{
										OFFSET 0.048810 -0.240214 0.103329
									}
								}
							}
						}
					}
					JOINT Spine3_R_Collar
					{
						OFFSET 0.000000 0.000000 0.000000
						CHANNELS 3 Zrotation Yrotation Xrotation
						JOINT R_Collar
						{
							OFFSET -0.073372 0.120704 -0.024611
							CHANNELS 3 Zrotation Yrotation Xrotation
							JOINT R_Shoulder
							{
								OFFSET -0.108089 -0.054969 -0.020504
								CHANNELS 3 Zrotation Yrotation Xrotation
								JOINT R_Elbow
								{
									OFFSET -0.033684 -0.260739 0.009889
									CHANNELS 3 Zrotation Yrotation Xrotation
									End Site #name: R_Wrist
									{
										OFFSET -0.067980 -0.232763 0.118463
									}
								}
							}
						}
					}
				}
			}
		}
	}
}
MOTION
Frames: 10
Frame Time: 0.041667
-0.002471 0.939895 0.005127 -2.457749 -4.906613 7.316143 0.000000 0.000000 0.000000 -5.489268 -2.919136 -11.750859 5.946294 -1.252148 10.570602 0.872448 -9.024986 -6.123096 0.000000 0.000000 0.000000 5.218506 1.982570 -10.813313 -4.084513 0.819956 1.906582 5.088346 19.615171 -0.804553 0.000000 0.000000 0.000000 5.416739 1.070160 -17.049758 -2.770153 4.542771 42.354941 3.314626 2.450919 -33.781127 0.000000 0.000000 0.000000 -3.837422 2.094593 17.498635 0.000000 0.000000 0.000000 29.440057 -3.068008 3.289015 -30.456000 1.487665 0.214189 1.545919 3.372865 15.221031 0.000000 0.000000 0.000000 -25.375700 2.515583 3.727186 24.566412 -0.374279 7.301661 2.633116 -1.686109 9.684787 
-0.001998 0.939828 0.007016 -2.472875 -4.912289 7.361574 0.000000 0.000000 0.000000 -5.508392 -2.901982 -11.691514 5.935322 -1.252638 10.606846 0.911749 -9.039858 -6.197056 0.000000 0.000000 0.000000 5.214057 1.966674 -10.743921 -4.095077 0.822147 1.910410 5.065522 19.629858 -0.849295 0.000000 0.000000 0.000000 5.549433 1.063978 -17.077233 -2.788101 4.542465 42.252687 3.309800 2.417198 -33.701609 0.000000 0.000000 0.000000 -3.524378 1.896735 17.520294 0.000000 0.000000 0.000000 29.413389 -3.176304 3.177179 -31.951497 1.762618 0.714751 1.151832 3.209124 14.939370 0.000000 0.000000 0.000000 -25.666103 2.393205 3.913723 24.994764 -0.353233 7.266729 3.031320 -1.546079 9.758034 
-0.001966 0.939883 0.008506 -2.510503 -4.863717 7.469360 0.000000 0.000000 0.000000 -5.432944 -2.925222 -11.783170 5.865106 -1.250338 10.750055 0.972257 -9.053410 -6.303809 0.000000 0.000000 0.000000 5.237119 1.974126 -10.778350 -4.067040 0.823139 1.966838 5.041242 19.592787 -0.873720 0.000000 0.000000 0.000000 5.548264 1.077097 -17.174343 -2.689438 4.442816 41.980654 3.315236 2.282872 -33.554087 0.000000 0.000000 0.000000 -3.149757 1.666128 17.580390 0.000000 0.000000 0.000000 29.655763 -3.334811 3.067966 -32.373260 1.927530 1.058236 1.024583 3.150991 14.809841 0.000000 0.000000 0.000000 -26.005231 2.197792 4.189960 24.790923 -0.122931 6.594514 3.145096 -1.463906 9.639534 
-0.002213 0.939963 0.009881 -2.557371 -4.751555 7.583281 0.000000 0.000000 0.000000 -5.328147 -2.952184 -11.891272 5.802359 -1.247495 10.864299 1.001284 -9.114835 -6.374328 0.000000 0.000000 0.000000 5.284429 1.988007 -10.838101 -4.033490 0.827294 2.063280 4.979628 19.499806 -0.936830 0.000000 0.000000 0.000000 5.438672 1.100596 -17.288591 -2.426891 4.222428 41.580628 3.312854 2.032354 -33.432884 0.000000 0.000000 0.000000 -2.755953 1.428609 17.672866 0.000000 0.000000 0.000000 30.389352 -3.683354 2.881622 -31.920897 1.995084 1.301548 1.255931 3.255005 15.025098 0.000000 0.000000 0.000000 -26.544975 2.085578 4.468584 23.927496 0.316387 5.250572 2.827715 -1.576274 9.579159 
-0.002562 0.939928 0.011291 -2.563286 -4.678769 7.621779 0.000000 0.000000 0.000000 -5.331600 -2.943471 -11.862230 5.832204 -1.253197 10.864339 1.007432 -9.198584 -6.417392 0.000000 0.000000 0.000000 5.308489 1.976358 -10.783347 -4.023416 0.826774 2.074337 4.929279 19.443986 -0.997332 0.000000 0.000000 0.000000 5.335632 1.128527 -17.436113 -2.158890 4.030829 41.375075 3.261030 1.802059 -33.498250 0.000000 0.000000 0.000000 -2.399203 1.208295 17.585325 0.000000 0.000000 0.000000 31.224693 -4.324630 2.447195 -30.149673 1.873512 1.302720 2.076974 3.566900 15.507339 0.000000 0.000000 0.000000 -27.302488 2.428652 4.417510 21.984060 0.820645 3.478613 1.697444 -2.059334 9.656988 
-0.002907 0.939617 0.012496 -2.551509 -4.730502 7.627027 0.000000 0.000000 0.000000 -5.412441 -2.926315 -11.796548 5.916442 -1.265083 10.825336 0.974913 -9.210770 -6.370425 0.000000 0.000000 0.000000 5.322114 1.956264 -10.691403 -4.051557 0.822323 1.982925 4.957320 19.485440 -0.968007 0.000000 0.000000 0.000000 5.427612 1.149773 -17.633659 -2.182947 4.043094 41.294998 3.213381 1.786817 -33.530780 0.000000 0.000000 0.000000 -2.078498 1.000078 17.293181 0.000000 0.000000 0.000000 31.720993 -5.069756 1.857238 -27.164460 1.599120 1.046766 4.609694 4.130975 14.625004 0.000000 0.000000 0.000000 -28.301371 3.300066 3.942257 18.945811 1.197358 1.626998 -0.684888 -2.894288 9.190204 
-0.003194 0.939354 0.012969 -2.506765 -4.778748 7.629833 0.000000 0.000000 0.000000 -5.484727 -2.932656 -11.813680 5.940040 -1.273108 10.885340 0.939551 -9.179213 -6.299126 0.000000 0.000000 0.000000 5.287842 1.939938 -10.623318 -4.090571 0.818376 1.878520 5.029837 19.523564 -0.862879 0.000000 0.000000 0.000000 5.630536 1.180868 -17.949788 -2.514458 4.249334 41.342712 3.189522 1.983117 -33.391895 0.000000 0.000000 0.000000 -1.632263 0.699898 16.946465 0.000000 0.000000 0.000000 31.972551 -5.638601 1.414412 -23.857116 1.320769 0.727172 9.355350 4.896542 9.142974 0.000000 0.000000 0.000000 -29.428505 4.182910 3.430312 15.524680 1.434927 -0.225541 -4.747549 -4.017424 7.009047 
-0.003508 0.939251 0.012090 -2.409693 -4.591862 7.630096 0.000000 0.000000 0.000000 -5.493140 -2.980204 -11.981258 5.872940 -1.275030 11.073916 0.898183 -9.253277 -6.250681 0.000000 0.000000 0.000000 5.252545 1.930387 -10.584719 -4.181395 0.828457 1.819562 5.072384 19.378876 -0.727946 0.000000 0.000000 0.000000 5.688537 1.238286 -18.376468 -2.931170 4.503204 41.642713 3.176730 2.248190 -33.261144 0.000000 0.000000 0.000000 -0.979480 0.257251 16.633732 0.000000 0.000000 0.000000 32.302498 -6.004951 1.219045 -21.026766 1.012505 0.128936 15.026990 6.109540 -2.901415 0.000000 0.000000 0.000000 -30.443936 4.614442 3.232597 12.788075 1.691196 -2.250289 -10.792113 -5.625707 1.965872 
-0.004141 0.939337 0.009757 -2.270421 -4.076572 7.644744 0.000000 0.000000 0.000000 -5.419709 -3.074465 -12.319674 5.737631 -1.271249 11.326190 0.849420 -9.531406 -6.260724 0.000000 0.000000 0.000000 5.265629 1.932968 -10.593276 -4.317746 0.851597 1.804763 5.045135 18.974933 -0.594842 0.000000 0.000000 0.000000 5.459957 1.306624 -18.762655 -3.243234 4.662756 42.058340 3.152581 2.408498 -33.382490 0.000000 0.000000 0.000000 -0.288020 -0.212146 16.362817 0.000000 0.000000 0.000000 32.849027 -6.371509 1.085978 -18.983195 0.441059 -1.676475 19.971934 8.127648 -19.544338 0.000000 0.000000 0.000000 -31.197415 4.541434 3.402338 11.964592 2.143936 -4.390543 -18.888471 -8.370409 -7.147913 
-0.005280 0.939593 0.006705 -2.104058 -3.374357 7.699154 0.000000 0.000000 0.000000 -5.322494 -3.191760 -12.743298 5.607795 -1.263799 11.490212 0.789439 -9.953129 -6.303546 0.000000 0.000000 0.000000 5.281000 1.953773 -10.685042 -4.404943 0.870984 1.831432 4.961826 18.416898 -0.484762 0.000000 0.000000 0.000000 4.907176 1.362083 -18.938187 -3.252784 4.582419 42.233550 3.129821 2.379206 -33.751485 0.000000 0.000000 0.000000 0.140242 -0.502091 16.015013 0.000000 0.000000 0.000000 33.816438 -7.005086 0.761109 -18.441319 -0.621726 -5.644552 23.144984 10.606509 -37.059164 0.000000 0.000000 0.000000 -31.622842 4.238221 3.720444 13.385249 2.978262 -6.732118 -26.909592 -12.474142 -20.829066 
